<svg xmlns="http://www.w3.org/2000/svg" viewBox="0 0 1400 950" role="img" aria-labelledby="title desc">
  <title id="title">Two football athletes in a stadium tunnel</title>
  <desc id="desc">A stylized running back silhouette and linebacker silhouette under bright stadium lights on a football field.</desc>
  <defs>
    <linearGradient id="sky" x1="0" x2="1" y1="0" y2="1">
      <stop offset="0" stop-color="#050707"/>
      <stop offset=".48" stop-color="#132018"/>
      <stop offset="1" stop-color="#0c0b09"/>
    </linearGradient>
    <linearGradient id="field" x1="0" x2="1">
      <stop offset="0" stop-color="#17351f"/>
      <stop offset=".5" stop-color="#263925"/>
      <stop offset="1" stop-color="#26150f"/>
    </linearGradient>
    <radialGradient id="light" cx="50%" cy="18%" r="44%">
      <stop offset="0" stop-color="#f9fff4" stop-opacity=".86"/>
      <stop offset=".36" stop-color="#e9fff0" stop-opacity=".34"/>
      <stop offset="1" stop-color="#e9fff0" stop-opacity="0"/>
    </radialGradient>
    <filter id="glow" x="-50%" y="-50%" width="200%" height="200%">
      <feGaussianBlur stdDeviation="14"/>
    </filter>
  </defs>

  <rect width="1400" height="950" fill="url(#sky)"/>
  <rect y="560" width="1400" height="390" fill="url(#field)"/>
  <rect width="1400" height="950" fill="url(#light)"/>

  <g opacity=".34">
    <path d="M0 540 C250 420 440 390 700 390 C960 390 1150 420 1400 540" fill="none" stroke="#d9ffdd" stroke-width="4"/>
    <path d="M80 530 C300 455 485 438 700 438 C915 438 1100 455 1320 530" fill="none" stroke="#c7d6ca" stroke-width="2"/>
    <path d="M170 520 C350 488 520 475 700 475 C880 475 1050 488 1230 520" fill="none" stroke="#c7d6ca" stroke-width="2"/>
  </g>

  <g opacity=".8">
    <rect x="0" y="85" width="185" height="820" fill="#050606"/>
    <rect x="1215" y="85" width="185" height="820" fill="#070606"/>
    <path d="M185 90 L285 0 L285 950 L185 905Z" fill="#111615"/>
    <path d="M1215 90 L1115 0 L1115 950 L1215 905Z" fill="#14100e"/>
    <g stroke="#2e3834" stroke-width="4">
      <path d="M34 135h122M34 285h122M34 435h122M34 585h122M34 735h122"/>
      <path d="M1244 135h122M1244 285h122M1244 435h122M1244 585h122M1244 735h122"/>
    </g>
  </g>

  <g opacity=".9">
    <circle cx="462" cy="184" r="12" fill="#f8fff2" filter="url(#glow)"/>
    <circle cx="560" cy="155" r="12" fill="#f8fff2" filter="url(#glow)"/>
    <circle cx="662" cy="140" r="12" fill="#f8fff2" filter="url(#glow)"/>
    <circle cx="760" cy="142" r="12" fill="#f8fff2" filter="url(#glow)"/>
    <circle cx="862" cy="160" r="12" fill="#f8fff2" filter="url(#glow)"/>
    <circle cx="960" cy="190" r="12" fill="#f8fff2" filter="url(#glow)"/>
  </g>

  <g opacity=".32" stroke="#f7fff0" stroke-width="5">
    <path d="M125 665h1150"/>
    <path d="M220 720h960"/>
    <path d="M330 780h740"/>
    <path d="M470 850h460"/>
  </g>
  <g opacity=".18" stroke="#f7fff0" stroke-width="3">
    <path d="M700 560L545 950M700 560L855 950"/>
    <path d="M700 560L360 950M700 560L1040 950"/>
  </g>

  <g transform="translate(380 262) rotate(-10)" fill="#030404" stroke="#202b24" stroke-width="7">
    <ellipse cx="102" cy="60" rx="54" ry="48"/>
    <path d="M55 45c32-50 124-46 151 10c-36-16-102-16-151-10Z" fill="#101513"/>
    <rect x="54" y="101" width="120" height="168" rx="52"/>
    <path d="M67 142c-72 18-116 63-132 138" fill="none" stroke-linecap="round"/>
    <path d="M170 148c84 24 132 77 144 150" fill="none" stroke-linecap="round"/>
    <path d="M82 260c-68 96-112 175-132 264" fill="none" stroke-linecap="round"/>
    <path d="M148 262c42 108 80 196 131 264" fill="none" stroke-linecap="round"/>
    <ellipse cx="-31" cy="285" rx="48" ry="59" transform="rotate(-22 -31 285)" fill="#21120d" stroke="#472418"/>
    <path d="M-52 257c22 25 47 47 72 65" fill="none" stroke="#9f4f2f" stroke-width="5"/>
  </g>

  <g transform="translate(925 330) rotate(6)" fill="#040404" stroke="#2c201a" stroke-width="7">
    <ellipse cx="80" cy="58" rx="48" ry="43"/>
    <path d="M38 45c29-41 104-39 130 7c-34-13-82-14-130-7Z" fill="#11100e"/>
    <rect x="29" y="100" width="105" height="142" rx="44"/>
    <path d="M30 141c-60 45-99 96-128 161" fill="none" stroke-linecap="round"/>
    <path d="M132 145c63 44 102 96 126 160" fill="none" stroke-linecap="round"/>
    <path d="M54 239c-50 88-82 167-92 240" fill="none" stroke-linecap="round"/>
    <path d="M111 239c38 89 76 166 125 238" fill="none" stroke-linecap="round"/>
  </g>

  <g opacity=".62">
    <path d="M0 725 C260 670 430 705 610 760 C810 825 1035 840 1400 760 L1400 950 L0 950Z" fill="#07100b"/>
    <path d="M0 560 C360 615 730 625 1400 560" fill="none" stroke="#76d977" stroke-width="5"/>
    <path d="M0 592 C350 650 730 665 1400 595" fill="none" stroke="#f07a3f" stroke-width="4" opacity=".62"/>
  </g>
</svg>
